<mxfile host="app.diagrams.net" modified="2022-04-12T01:48:11.990Z" agent="5.0 (Macintosh; Intel Mac OS X 10_15_7) AppleWebKit/537.36 (KHTML, like Gecko) Chrome/99.0.4844.84 Safari/537.36" etag="GFoiS2-s6PcW0w9z7P8A" version="17.2.4" type="github" pages="2">
  <diagram id="J9gbOuOgg6OHcFbdHNDi" name="第 1 页">
    <mxGraphModel dx="1346" dy="971" grid="0" gridSize="10" guides="1" tooltips="1" connect="1" arrows="1" fold="1" page="0" pageScale="1" pageWidth="827" pageHeight="1169" math="0" shadow="0">
      <root>
        <mxCell id="0" />
        <mxCell id="1" parent="0" />
        <mxCell id="0Ci0Uz99gbHuSnvOUkY4-46" value="" style="rounded=0;whiteSpace=wrap;html=1;fillColor=#e1d5e7;strokeColor=#9673a6;" vertex="1" parent="1">
          <mxGeometry x="103" y="-6" width="207" height="340" as="geometry" />
        </mxCell>
        <mxCell id="0Ci0Uz99gbHuSnvOUkY4-43" value="" style="rounded=0;whiteSpace=wrap;html=1;fillColor=#dae8fc;strokeColor=#6c8ebf;" vertex="1" parent="1">
          <mxGeometry x="-25" y="-6" width="118" height="340" as="geometry" />
        </mxCell>
        <mxCell id="0Ci0Uz99gbHuSnvOUkY4-40" value="" style="rounded=0;whiteSpace=wrap;html=1;fillColor=#fff2cc;strokeColor=#d6b656;" vertex="1" parent="1">
          <mxGeometry x="318" y="-6" width="215" height="340" as="geometry" />
        </mxCell>
        <mxCell id="0Ci0Uz99gbHuSnvOUkY4-1" value="" style="shape=cylinder3;whiteSpace=wrap;html=1;boundedLbl=1;backgroundOutline=1;size=15;" vertex="1" parent="1">
          <mxGeometry x="333" y="222" width="60" height="80" as="geometry" />
        </mxCell>
        <mxCell id="0Ci0Uz99gbHuSnvOUkY4-2" value="" style="shape=cylinder3;whiteSpace=wrap;html=1;boundedLbl=1;backgroundOutline=1;size=15;" vertex="1" parent="1">
          <mxGeometry x="357" y="228" width="60" height="80" as="geometry" />
        </mxCell>
        <mxCell id="0Ci0Uz99gbHuSnvOUkY4-3" value="业务DB" style="shape=cylinder3;whiteSpace=wrap;html=1;boundedLbl=1;backgroundOutline=1;size=15;" vertex="1" parent="1">
          <mxGeometry x="383" y="236" width="60" height="80" as="geometry" />
        </mxCell>
        <mxCell id="0Ci0Uz99gbHuSnvOUkY4-4" value="CK" style="shape=cylinder3;whiteSpace=wrap;html=1;boundedLbl=1;backgroundOutline=1;size=15;" vertex="1" parent="1">
          <mxGeometry x="332" y="124" width="60" height="80" as="geometry" />
        </mxCell>
        <mxCell id="0Ci0Uz99gbHuSnvOUkY4-5" value="临时库" style="shape=cylinder3;whiteSpace=wrap;html=1;boundedLbl=1;backgroundOutline=1;size=15;" vertex="1" parent="1">
          <mxGeometry x="333" y="33" width="60" height="80" as="geometry" />
        </mxCell>
        <mxCell id="0Ci0Uz99gbHuSnvOUkY4-7" style="edgeStyle=orthogonalEdgeStyle;rounded=0;orthogonalLoop=1;jettySize=auto;html=1;entryX=1;entryY=0.5;entryDx=0;entryDy=0;entryPerimeter=0;exitX=0;exitY=0.5;exitDx=0;exitDy=0;" edge="1" parent="1" source="0Ci0Uz99gbHuSnvOUkY4-10" target="0Ci0Uz99gbHuSnvOUkY4-5">
          <mxGeometry relative="1" as="geometry">
            <mxPoint x="462" y="80" as="sourcePoint" />
          </mxGeometry>
        </mxCell>
        <mxCell id="0Ci0Uz99gbHuSnvOUkY4-9" style="edgeStyle=orthogonalEdgeStyle;rounded=0;orthogonalLoop=1;jettySize=auto;html=1;entryX=1;entryY=0.5;entryDx=0;entryDy=0;entryPerimeter=0;" edge="1" parent="1" source="0Ci0Uz99gbHuSnvOUkY4-8" target="0Ci0Uz99gbHuSnvOUkY4-4">
          <mxGeometry relative="1" as="geometry" />
        </mxCell>
        <mxCell id="0Ci0Uz99gbHuSnvOUkY4-8" value="kafka" style="rounded=0;whiteSpace=wrap;html=1;" vertex="1" parent="1">
          <mxGeometry x="417" y="144" width="100" height="40" as="geometry" />
        </mxCell>
        <mxCell id="0Ci0Uz99gbHuSnvOUkY4-10" value="离线计算" style="rounded=0;whiteSpace=wrap;html=1;" vertex="1" parent="1">
          <mxGeometry x="415" y="53" width="100" height="40" as="geometry" />
        </mxCell>
        <mxCell id="dTZowQkP_Xo08F-47WKJ-42" style="edgeStyle=none;rounded=0;orthogonalLoop=1;jettySize=auto;html=1;entryX=0;entryY=0.5;entryDx=0;entryDy=0;entryPerimeter=0;" edge="1" parent="1" source="0Ci0Uz99gbHuSnvOUkY4-19" target="0Ci0Uz99gbHuSnvOUkY4-4">
          <mxGeometry relative="1" as="geometry" />
        </mxCell>
        <mxCell id="dTZowQkP_Xo08F-47WKJ-43" style="edgeStyle=none;rounded=0;orthogonalLoop=1;jettySize=auto;html=1;exitX=1;exitY=0.75;exitDx=0;exitDy=0;entryX=0;entryY=0.5;entryDx=0;entryDy=0;entryPerimeter=0;" edge="1" parent="1" source="0Ci0Uz99gbHuSnvOUkY4-19" target="0Ci0Uz99gbHuSnvOUkY4-1">
          <mxGeometry relative="1" as="geometry" />
        </mxCell>
        <mxCell id="dTZowQkP_Xo08F-47WKJ-44" style="edgeStyle=none;rounded=0;orthogonalLoop=1;jettySize=auto;html=1;exitX=1;exitY=0.25;exitDx=0;exitDy=0;entryX=0;entryY=0.5;entryDx=0;entryDy=0;entryPerimeter=0;" edge="1" parent="1" source="0Ci0Uz99gbHuSnvOUkY4-19" target="0Ci0Uz99gbHuSnvOUkY4-5">
          <mxGeometry relative="1" as="geometry" />
        </mxCell>
        <mxCell id="0Ci0Uz99gbHuSnvOUkY4-19" value="执行器" style="rounded=0;whiteSpace=wrap;html=1;" vertex="1" parent="1">
          <mxGeometry x="244.5" y="63.88" width="55.5" height="200.25" as="geometry" />
        </mxCell>
        <mxCell id="0Ci0Uz99gbHuSnvOUkY4-26" value="SQL管理器" style="rounded=0;whiteSpace=wrap;html=1;" vertex="1" parent="1">
          <mxGeometry x="126.87" y="41" width="100" height="42" as="geometry" />
        </mxCell>
        <mxCell id="0Ci0Uz99gbHuSnvOUkY4-28" value="预处理" style="rounded=0;whiteSpace=wrap;html=1;" vertex="1" parent="1">
          <mxGeometry x="126.87" y="91" width="100" height="42" as="geometry" />
        </mxCell>
        <mxCell id="0Ci0Uz99gbHuSnvOUkY4-33" value="高速缓存接口" style="rounded=0;whiteSpace=wrap;html=1;" vertex="1" parent="1">
          <mxGeometry x="-17.25" y="84" width="100" height="40" as="geometry" />
        </mxCell>
        <mxCell id="0Ci0Uz99gbHuSnvOUkY4-37" value="缓存" style="shape=cylinder3;whiteSpace=wrap;html=1;boundedLbl=1;backgroundOutline=1;size=15;" vertex="1" parent="1">
          <mxGeometry x="116.5" y="247" width="60" height="80" as="geometry" />
        </mxCell>
        <mxCell id="0Ci0Uz99gbHuSnvOUkY4-38" value="微型&lt;br&gt;聚合库" style="shape=cylinder3;whiteSpace=wrap;html=1;boundedLbl=1;backgroundOutline=1;size=15;" vertex="1" parent="1">
          <mxGeometry x="180" y="247" width="60" height="80" as="geometry" />
        </mxCell>
        <mxCell id="0Ci0Uz99gbHuSnvOUkY4-41" value="数据层" style="rounded=0;whiteSpace=wrap;html=1;fillColor=#D6B656;strokeColor=#d6b656;" vertex="1" parent="1">
          <mxGeometry x="376" y="-24" width="99" height="36" as="geometry" />
        </mxCell>
        <mxCell id="0Ci0Uz99gbHuSnvOUkY4-44" value="API层" style="rounded=0;whiteSpace=wrap;html=1;fillColor=#6C8EBF;strokeColor=#6c8ebf;" vertex="1" parent="1">
          <mxGeometry x="-17" y="-24" width="99" height="36" as="geometry" />
        </mxCell>
        <mxCell id="0Ci0Uz99gbHuSnvOUkY4-45" value="实时查询接口" style="rounded=0;whiteSpace=wrap;html=1;" vertex="1" parent="1">
          <mxGeometry x="-17.75" y="196" width="100" height="40" as="geometry" />
        </mxCell>
        <mxCell id="0Ci0Uz99gbHuSnvOUkY4-52" style="edgeStyle=orthogonalEdgeStyle;rounded=0;orthogonalLoop=1;jettySize=auto;html=1;entryX=1;entryY=0.5;entryDx=0;entryDy=0;entryPerimeter=0;exitX=0;exitY=0.5;exitDx=0;exitDy=0;" edge="1" parent="1" target="0Ci0Uz99gbHuSnvOUkY4-51">
          <mxGeometry relative="1" as="geometry">
            <mxPoint x="208" y="80" as="sourcePoint" />
          </mxGeometry>
        </mxCell>
        <mxCell id="0Ci0Uz99gbHuSnvOUkY4-53" style="edgeStyle=orthogonalEdgeStyle;rounded=0;orthogonalLoop=1;jettySize=auto;html=1;entryX=1;entryY=0.5;entryDx=0;entryDy=0;entryPerimeter=0;" edge="1" parent="1" target="0Ci0Uz99gbHuSnvOUkY4-50">
          <mxGeometry relative="1" as="geometry">
            <mxPoint x="208" y="200" as="sourcePoint" />
          </mxGeometry>
        </mxCell>
        <mxCell id="0Ci0Uz99gbHuSnvOUkY4-56" value="查询引擎" style="rounded=0;whiteSpace=wrap;html=1;fillColor=#9673A6;strokeColor=#9673a6;" vertex="1" parent="1">
          <mxGeometry x="157" y="-24" width="99" height="36" as="geometry" />
        </mxCell>
        <mxCell id="0Ci0Uz99gbHuSnvOUkY4-57" value="聚合引擎" style="rounded=0;whiteSpace=wrap;html=1;" vertex="1" parent="1">
          <mxGeometry x="126.87" y="161" width="99.13" height="64.5" as="geometry" />
        </mxCell>
        <mxCell id="dTZowQkP_Xo08F-47WKJ-1" value="" style="rounded=0;whiteSpace=wrap;html=1;fillColor=#e1d5e7;strokeColor=#9673a6;" vertex="1" parent="1">
          <mxGeometry x="-41.5" y="468" width="444.5" height="186" as="geometry" />
        </mxCell>
        <mxCell id="dTZowQkP_Xo08F-47WKJ-2" value="" style="rounded=0;whiteSpace=wrap;html=1;fillColor=#dae8fc;strokeColor=#6c8ebf;" vertex="1" parent="1">
          <mxGeometry x="-41.5" y="387" width="443.5" height="69" as="geometry" />
        </mxCell>
        <mxCell id="dTZowQkP_Xo08F-47WKJ-3" value="" style="rounded=0;whiteSpace=wrap;html=1;fillColor=#fff2cc;strokeColor=#d6b656;" vertex="1" parent="1">
          <mxGeometry x="-41.5" y="668" width="445.5" height="274" as="geometry" />
        </mxCell>
        <mxCell id="dTZowQkP_Xo08F-47WKJ-4" value="" style="shape=cylinder3;whiteSpace=wrap;html=1;boundedLbl=1;backgroundOutline=1;size=15;" vertex="1" parent="1">
          <mxGeometry x="-7" y="681" width="60" height="80" as="geometry" />
        </mxCell>
        <mxCell id="dTZowQkP_Xo08F-47WKJ-5" value="" style="shape=cylinder3;whiteSpace=wrap;html=1;boundedLbl=1;backgroundOutline=1;size=15;" vertex="1" parent="1">
          <mxGeometry x="17" y="687" width="60" height="80" as="geometry" />
        </mxCell>
        <mxCell id="dTZowQkP_Xo08F-47WKJ-6" value="业务DB" style="shape=cylinder3;whiteSpace=wrap;html=1;boundedLbl=1;backgroundOutline=1;size=15;" vertex="1" parent="1">
          <mxGeometry x="43" y="695" width="60" height="80" as="geometry" />
        </mxCell>
        <mxCell id="dTZowQkP_Xo08F-47WKJ-7" value="CK" style="shape=cylinder3;whiteSpace=wrap;html=1;boundedLbl=1;backgroundOutline=1;size=15;" vertex="1" parent="1">
          <mxGeometry x="154" y="688" width="60" height="80" as="geometry" />
        </mxCell>
        <mxCell id="dTZowQkP_Xo08F-47WKJ-8" value="临时库" style="shape=cylinder3;whiteSpace=wrap;html=1;boundedLbl=1;backgroundOutline=1;size=15;" vertex="1" parent="1">
          <mxGeometry x="304" y="688" width="60" height="80" as="geometry" />
        </mxCell>
        <mxCell id="dTZowQkP_Xo08F-47WKJ-37" style="edgeStyle=none;rounded=0;orthogonalLoop=1;jettySize=auto;html=1;entryX=0.5;entryY=1;entryDx=0;entryDy=0;" edge="1" parent="1" source="dTZowQkP_Xo08F-47WKJ-11" target="dTZowQkP_Xo08F-47WKJ-35">
          <mxGeometry relative="1" as="geometry" />
        </mxCell>
        <mxCell id="dTZowQkP_Xo08F-47WKJ-11" value="kafka" style="rounded=0;whiteSpace=wrap;html=1;" vertex="1" parent="1">
          <mxGeometry x="134" y="871" width="100" height="40" as="geometry" />
        </mxCell>
        <mxCell id="dTZowQkP_Xo08F-47WKJ-31" style="edgeStyle=none;rounded=0;orthogonalLoop=1;jettySize=auto;html=1;entryX=0.5;entryY=1;entryDx=0;entryDy=0;entryPerimeter=0;" edge="1" parent="1" source="dTZowQkP_Xo08F-47WKJ-12" target="dTZowQkP_Xo08F-47WKJ-8">
          <mxGeometry relative="1" as="geometry" />
        </mxCell>
        <mxCell id="dTZowQkP_Xo08F-47WKJ-12" value="离线计算" style="rounded=0;whiteSpace=wrap;html=1;" vertex="1" parent="1">
          <mxGeometry x="284" y="790" width="100" height="40" as="geometry" />
        </mxCell>
        <mxCell id="dTZowQkP_Xo08F-47WKJ-13" value="聚合引擎&lt;br&gt;" style="rounded=0;whiteSpace=wrap;html=1;" vertex="1" parent="1">
          <mxGeometry x="136.87" y="495" width="94.25" height="75" as="geometry" />
        </mxCell>
        <mxCell id="dTZowQkP_Xo08F-47WKJ-14" value="SQL管理器" style="rounded=0;whiteSpace=wrap;html=1;" vertex="1" parent="1">
          <mxGeometry x="-20" y="485" width="134" height="42" as="geometry" />
        </mxCell>
        <mxCell id="dTZowQkP_Xo08F-47WKJ-16" value="高速缓存接口" style="rounded=0;whiteSpace=wrap;html=1;" vertex="1" parent="1">
          <mxGeometry x="20" y="402" width="100" height="40" as="geometry" />
        </mxCell>
        <mxCell id="dTZowQkP_Xo08F-47WKJ-17" value="缓存库" style="shape=cylinder3;whiteSpace=wrap;html=1;boundedLbl=1;backgroundOutline=1;size=15;" vertex="1" parent="1">
          <mxGeometry x="250" y="492.5" width="60" height="80" as="geometry" />
        </mxCell>
        <mxCell id="dTZowQkP_Xo08F-47WKJ-18" value="微型&lt;br&gt;聚合库" style="shape=cylinder3;whiteSpace=wrap;html=1;boundedLbl=1;backgroundOutline=1;size=15;" vertex="1" parent="1">
          <mxGeometry x="322" y="492.5" width="60" height="80" as="geometry" />
        </mxCell>
        <mxCell id="dTZowQkP_Xo08F-47WKJ-19" value="数据层" style="rounded=0;whiteSpace=wrap;html=1;fillColor=#D6B656;strokeColor=#d6b656;" vertex="1" parent="1">
          <mxGeometry x="-150" y="668" width="99" height="36" as="geometry" />
        </mxCell>
        <mxCell id="dTZowQkP_Xo08F-47WKJ-20" value="API层" style="rounded=0;whiteSpace=wrap;html=1;fillColor=#6C8EBF;strokeColor=#6c8ebf;" vertex="1" parent="1">
          <mxGeometry x="-150" y="387" width="99" height="36" as="geometry" />
        </mxCell>
        <mxCell id="dTZowQkP_Xo08F-47WKJ-21" value="实时查询接口" style="rounded=0;whiteSpace=wrap;html=1;" vertex="1" parent="1">
          <mxGeometry x="217" y="402" width="100" height="40" as="geometry" />
        </mxCell>
        <mxCell id="dTZowQkP_Xo08F-47WKJ-22" value="查询引擎" style="rounded=0;whiteSpace=wrap;html=1;fillColor=#9673A6;strokeColor=#9673a6;" vertex="1" parent="1">
          <mxGeometry x="-150" y="468" width="99" height="36" as="geometry" />
        </mxCell>
        <mxCell id="dTZowQkP_Xo08F-47WKJ-32" style="edgeStyle=none;rounded=0;orthogonalLoop=1;jettySize=auto;html=1;entryX=0.5;entryY=0;entryDx=0;entryDy=0;entryPerimeter=0;" edge="1" parent="1" source="dTZowQkP_Xo08F-47WKJ-23" target="dTZowQkP_Xo08F-47WKJ-7">
          <mxGeometry relative="1" as="geometry" />
        </mxCell>
        <mxCell id="dTZowQkP_Xo08F-47WKJ-33" style="edgeStyle=none;rounded=0;orthogonalLoop=1;jettySize=auto;html=1;exitX=0.75;exitY=1;exitDx=0;exitDy=0;entryX=0.145;entryY=0;entryDx=0;entryDy=4.35;entryPerimeter=0;" edge="1" parent="1" source="dTZowQkP_Xo08F-47WKJ-23" target="dTZowQkP_Xo08F-47WKJ-8">
          <mxGeometry relative="1" as="geometry" />
        </mxCell>
        <mxCell id="dTZowQkP_Xo08F-47WKJ-34" style="edgeStyle=none;rounded=0;orthogonalLoop=1;jettySize=auto;html=1;exitX=0.25;exitY=1;exitDx=0;exitDy=0;entryX=0.717;entryY=0.025;entryDx=0;entryDy=0;entryPerimeter=0;" edge="1" parent="1" source="dTZowQkP_Xo08F-47WKJ-23" target="dTZowQkP_Xo08F-47WKJ-5">
          <mxGeometry relative="1" as="geometry" />
        </mxCell>
        <mxCell id="dTZowQkP_Xo08F-47WKJ-23" value="&lt;span&gt;执行器&lt;/span&gt;" style="rounded=0;whiteSpace=wrap;html=1;" vertex="1" parent="1">
          <mxGeometry x="94" y="585" width="180" height="55.5" as="geometry" />
        </mxCell>
        <mxCell id="dTZowQkP_Xo08F-47WKJ-26" style="edgeStyle=none;rounded=0;orthogonalLoop=1;jettySize=auto;html=1;entryX=0.5;entryY=1;entryDx=0;entryDy=0;" edge="1" parent="1" source="dTZowQkP_Xo08F-47WKJ-24" target="dTZowQkP_Xo08F-47WKJ-12">
          <mxGeometry relative="1" as="geometry" />
        </mxCell>
        <mxCell id="dTZowQkP_Xo08F-47WKJ-24" value="数仓&lt;br&gt;GP" style="shape=cylinder3;whiteSpace=wrap;html=1;boundedLbl=1;backgroundOutline=1;size=15;" vertex="1" parent="1">
          <mxGeometry x="304" y="851" width="60" height="80" as="geometry" />
        </mxCell>
        <mxCell id="dTZowQkP_Xo08F-47WKJ-36" style="edgeStyle=none;rounded=0;orthogonalLoop=1;jettySize=auto;html=1;entryX=0.5;entryY=1;entryDx=0;entryDy=0;entryPerimeter=0;" edge="1" parent="1" source="dTZowQkP_Xo08F-47WKJ-35" target="dTZowQkP_Xo08F-47WKJ-7">
          <mxGeometry relative="1" as="geometry" />
        </mxCell>
        <mxCell id="dTZowQkP_Xo08F-47WKJ-35" value="实时收集" style="rounded=0;whiteSpace=wrap;html=1;" vertex="1" parent="1">
          <mxGeometry x="134" y="790" width="100" height="40" as="geometry" />
        </mxCell>
        <mxCell id="dTZowQkP_Xo08F-47WKJ-38" value="预处理" style="rounded=0;whiteSpace=wrap;html=1;" vertex="1" parent="1">
          <mxGeometry x="-20" y="536.5" width="134" height="42" as="geometry" />
        </mxCell>
        <mxCell id="dTZowQkP_Xo08F-47WKJ-48" value="风控" style="rounded=0;whiteSpace=wrap;html=1;" vertex="1" parent="1">
          <mxGeometry x="-169" y="33" width="100" height="42" as="geometry" />
        </mxCell>
        <mxCell id="dTZowQkP_Xo08F-47WKJ-49" value="安全" style="rounded=0;whiteSpace=wrap;html=1;" vertex="1" parent="1">
          <mxGeometry x="-169" y="93" width="100" height="42" as="geometry" />
        </mxCell>
        <mxCell id="dTZowQkP_Xo08F-47WKJ-50" value="数据助手" style="rounded=0;whiteSpace=wrap;html=1;" vertex="1" parent="1">
          <mxGeometry x="-169" y="154" width="100" height="42" as="geometry" />
        </mxCell>
        <mxCell id="dTZowQkP_Xo08F-47WKJ-51" value="供需调度" style="rounded=0;whiteSpace=wrap;html=1;" vertex="1" parent="1">
          <mxGeometry x="-169" y="210" width="100" height="42" as="geometry" />
        </mxCell>
        <mxCell id="dTZowQkP_Xo08F-47WKJ-52" value="..." style="rounded=0;whiteSpace=wrap;html=1;" vertex="1" parent="1">
          <mxGeometry x="-169" y="266" width="100" height="42" as="geometry" />
        </mxCell>
        <mxCell id="dTZowQkP_Xo08F-47WKJ-53" value="" style="shape=singleArrow;whiteSpace=wrap;html=1;fillColor=none;" vertex="1" parent="1">
          <mxGeometry x="-62" y="38" width="31" height="27.5" as="geometry" />
        </mxCell>
        <mxCell id="dTZowQkP_Xo08F-47WKJ-54" value="" style="shape=singleArrow;whiteSpace=wrap;html=1;fillColor=none;" vertex="1" parent="1">
          <mxGeometry x="-62" y="100.25" width="31" height="27.5" as="geometry" />
        </mxCell>
        <mxCell id="dTZowQkP_Xo08F-47WKJ-55" value="" style="shape=singleArrow;whiteSpace=wrap;html=1;fillColor=none;" vertex="1" parent="1">
          <mxGeometry x="-62" y="161.25" width="31" height="27.5" as="geometry" />
        </mxCell>
        <mxCell id="dTZowQkP_Xo08F-47WKJ-56" value="" style="shape=singleArrow;whiteSpace=wrap;html=1;fillColor=none;" vertex="1" parent="1">
          <mxGeometry x="-62" y="217.25" width="31" height="27.5" as="geometry" />
        </mxCell>
        <mxCell id="dTZowQkP_Xo08F-47WKJ-57" value="" style="shape=singleArrow;whiteSpace=wrap;html=1;fillColor=none;" vertex="1" parent="1">
          <mxGeometry x="-62" y="273.25" width="31" height="27.5" as="geometry" />
        </mxCell>
      </root>
    </mxGraphModel>
  </diagram>
  <diagram id="1QrN33Rscd3XtYVmi21F" name="第 2 页">
    <mxGraphModel dx="946" dy="569" grid="0" gridSize="10" guides="1" tooltips="1" connect="1" arrows="1" fold="1" page="0" pageScale="1" pageWidth="827" pageHeight="1169" math="0" shadow="0">
      <root>
        <mxCell id="0" />
        <mxCell id="1" parent="0" />
      </root>
    </mxGraphModel>
  </diagram>
</mxfile>
